<svg class="animated" id="freepik_stories-mobile-browsers" xmlns="http://www.w3.org/2000/svg" viewBox="0 0 500 500" version="1.1" xmlns:xlink="http://www.w3.org/1999/xlink" xmlns:svgjs="http://svgjs.com/svgjs"><style>svg#freepik_stories-mobile-browsers:not(.animated) .animable {opacity: 0;}svg#freepik_stories-mobile-browsers.animated #freepik--Screen--inject-95 {animation: 1s 1 forwards cubic-bezier(.36,-0.01,.5,1.38) fadeIn;animation-delay: 0s;}            @keyframes fadeIn {                0% {                    opacity: 0;                }                100% {                    opacity: 1;                }            }        </style><g id="freepik--background-complete--inject-95" class="animable" style="transform-origin: 250px 226.87px;"><rect y="382.4" width="500" height="0.25" style="fill: rgb(235, 235, 235); transform-origin: 250px 382.525px;" id="elq9jzd666oya" class="animable"></rect><rect x="333.33" y="389.21" width="73.79" height="0.25" style="fill: rgb(235, 235, 235); transform-origin: 370.225px 389.335px;" id="elcj5t4hr4wls" class="animable"></rect><rect x="103.62" y="390.89" width="8.69" height="0.25" style="fill: rgb(235, 235, 235); transform-origin: 107.965px 391.015px;" id="elyrx1kvo6hx" class="animable"></rect><rect x="408.12" y="398.49" width="19.19" height="0.25" style="fill: rgb(235, 235, 235); transform-origin: 417.715px 398.615px;" id="elbot3pebm29r" class="animable"></rect><rect x="200" y="395.11" width="48.67" height="0.25" style="fill: rgb(235, 235, 235); transform-origin: 224.335px 395.235px;" id="el6eke4sp2qpr" class="animable"></rect><rect x="166.72" y="395.11" width="24.38" height="0.25" style="fill: rgb(235, 235, 235); transform-origin: 178.91px 395.235px;" id="eloxslozhs5ep" class="animable"></rect><rect x="52.46" y="390.89" width="33.15" height="0.25" style="fill: rgb(235, 235, 235); transform-origin: 69.035px 391.015px;" id="el0dogip3eswqq" class="animable"></rect><path d="M237,337.8H43.91a5.71,5.71,0,0,1-5.7-5.71V60.66A5.71,5.71,0,0,1,43.91,55H237a5.71,5.71,0,0,1,5.71,5.71V332.09A5.71,5.71,0,0,1,237,337.8ZM43.91,55.2a5.46,5.46,0,0,0-5.45,5.46V332.09a5.46,5.46,0,0,0,5.45,5.46H237a5.47,5.47,0,0,0,5.46-5.46V60.66A5.47,5.47,0,0,0,237,55.2Z" style="fill: rgb(235, 235, 235); transform-origin: 140.46px 196.4px;" id="el2szqcjzc7ex" class="animable"></path><path d="M453.31,337.8H260.21a5.72,5.72,0,0,1-5.71-5.71V60.66A5.72,5.72,0,0,1,260.21,55h193.1A5.71,5.71,0,0,1,459,60.66V332.09A5.71,5.71,0,0,1,453.31,337.8ZM260.21,55.2a5.47,5.47,0,0,0-5.46,5.46V332.09a5.47,5.47,0,0,0,5.46,5.46h193.1a5.47,5.47,0,0,0,5.46-5.46V60.66a5.47,5.47,0,0,0-5.46-5.46Z" style="fill: rgb(235, 235, 235); transform-origin: 356.75px 196.4px;" id="el6eig6zmauwg" class="animable"></path><g id="el3tk7pfww4d9"><rect x="76" y="94.69" width="153.99" height="180.44" style="fill: rgb(230, 230, 230); transform-origin: 152.995px 184.91px; transform: rotate(180deg);" class="animable"></rect></g><g id="el5jpwjseernl"><rect x="72.58" y="94.69" width="153.98" height="180.44" style="fill: rgb(245, 245, 245); transform-origin: 149.57px 184.91px; transform: rotate(180deg);" class="animable"></rect></g><g id="el345x6qmgo3z"><rect x="76" y="275.13" width="153.99" height="5.84" style="fill: rgb(230, 230, 230); transform-origin: 152.995px 278.05px; transform: rotate(180deg);" class="animable"></rect></g><g id="el54495arjt4c"><rect x="66.42" y="275.13" width="153.99" height="5.84" style="fill: rgb(245, 245, 245); transform-origin: 143.415px 278.05px; transform: rotate(180deg);" class="animable"></rect></g><g id="el11s0gntnniui"><rect x="65.1" y="114.07" width="168.94" height="141.68" style="fill: rgb(250, 250, 250); transform-origin: 149.57px 184.91px; transform: rotate(90deg);" class="animable"></rect></g><polygon points="206.49 269.38 182.19 100.44 143.41 100.44 167.71 269.38 206.49 269.38" style="fill: rgb(255, 255, 255); transform-origin: 174.95px 184.91px;" id="elddjrzowkirr" class="animable"></polygon><polygon points="158.66 269.38 134.37 100.44 107.66 100.44 131.96 269.38 158.66 269.38" style="fill: rgb(255, 255, 255); transform-origin: 133.16px 184.91px;" id="el7v177dng0u7" class="animable"></polygon><g id="elpeg1n5up7ig"><rect x="-4.45" y="183.61" width="168.94" height="2.59" style="fill: rgb(230, 230, 230); transform-origin: 80.02px 184.905px; transform: rotate(90deg);" class="animable"></rect></g><g id="eleihfb3hzzjw"><rect x="75.12" y="245.76" width="148.89" height="7.71" style="fill: rgb(245, 245, 245); transform-origin: 149.565px 249.615px; transform: rotate(180deg);" class="animable"></rect></g><g id="elqfia4lb6gnl"><rect x="287.72" y="144.33" width="23.76" height="238.07" style="fill: rgb(230, 230, 230); transform-origin: 299.6px 263.365px; transform: rotate(180deg);" class="animable"></rect></g><polygon points="292.23 382.4 287.72 382.4 287.72 369.56 296.96 369.56 292.23 382.4" style="fill: rgb(240, 240, 240); transform-origin: 292.34px 375.98px;" id="elzkdozrlod9" class="animable"></polygon><g id="elwn7l6bxcwv"><rect x="407.15" y="144.33" width="23.76" height="238.07" style="fill: rgb(230, 230, 230); transform-origin: 419.03px 263.365px; transform: rotate(180deg);" class="animable"></rect></g><g id="el1qcl5o3kj5ni"><rect x="287.72" y="144.33" width="123.37" height="231.74" style="fill: rgb(240, 240, 240); transform-origin: 349.405px 260.2px; transform: rotate(180deg);" class="animable"></rect></g><path d="M343.71,359H295.4a4.71,4.71,0,0,1-4.7-4.7v-202a4.71,4.71,0,0,1,4.7-4.71h48.31a4.7,4.7,0,0,1,4.7,4.71v202A4.7,4.7,0,0,1,343.71,359ZM295.4,148.6a3.65,3.65,0,0,0-3.65,3.66v202A3.65,3.65,0,0,0,295.4,358h48.31a3.66,3.66,0,0,0,3.66-3.65v-202a3.66,3.66,0,0,0-3.66-3.66Z" style="fill: rgb(224, 224, 224); transform-origin: 319.555px 253.295px;" id="el7u9fcssc8ev" class="animable"></path><path d="M403.41,359H355.1a4.71,4.71,0,0,1-4.7-4.7v-202a4.71,4.71,0,0,1,4.7-4.7h48.31a4.71,4.71,0,0,1,4.7,4.7V354.3A4.71,4.71,0,0,1,403.41,359ZM355.1,148.6a3.66,3.66,0,0,0-3.66,3.65V354.3A3.66,3.66,0,0,0,355.1,358h48.31a3.66,3.66,0,0,0,3.66-3.65v-202a3.66,3.66,0,0,0-3.66-3.65Z" style="fill: rgb(224, 224, 224); transform-origin: 379.255px 253.3px;" id="elin140ie48gs" class="animable"></path><path d="M363.6,254a4,4,0,1,1-4-4A4,4,0,0,1,363.6,254Z" style="fill: rgb(250, 250, 250); transform-origin: 359.6px 254px;" id="eltijrmvc33jl" class="animable"></path><path d="M343.24,254a4,4,0,1,1-4-4A4,4,0,0,1,343.24,254Z" style="fill: rgb(250, 250, 250); transform-origin: 339.24px 254px;" id="ellgqyb539gsc" class="animable"></path><polygon points="406.58 382.4 411.09 382.4 411.09 369.56 401.85 369.56 406.58 382.4" style="fill: rgb(240, 240, 240); transform-origin: 406.47px 375.98px;" id="el7hud4unvk7t" class="animable"></polygon><polygon points="364.51 110.11 326.66 110.11 342.44 104.75 380.29 104.75 364.51 110.11" style="fill: rgb(230, 230, 230); transform-origin: 353.475px 107.43px;" id="el9f1ssacntah" class="animable"></polygon><g id="ellv2lvcz27yc"><rect x="373.55" y="110.11" width="37.85" height="34.22" style="fill: rgb(235, 235, 235); transform-origin: 392.475px 127.22px; transform: rotate(180deg);" class="animable"></rect></g><g id="elqx1hyf2qeb8"><rect x="320.3" y="127.88" width="10.11" height="16.45" style="fill: rgb(235, 235, 235); transform-origin: 325.355px 136.105px; transform: rotate(180deg);" class="animable"></rect></g><rect x="307.77" y="127.88" width="12.53" height="16.45" style="fill: rgb(245, 245, 245); transform-origin: 314.035px 136.105px;" id="el06o8s7wi444l" class="animable"></rect><polygon points="373.55 110.11 411.4 110.11 395.62 106.56 357.77 106.56 373.55 110.11" style="fill: rgb(235, 235, 235); transform-origin: 384.585px 108.335px;" id="elwutwn8vjl" class="animable"></polygon><rect x="326.66" y="110.11" width="46.89" height="34.22" style="fill: rgb(245, 245, 245); transform-origin: 350.105px 127.22px;" id="elen9alx4z2m5" class="animable"></rect><polygon points="177.89 382.4 210.35 382.4 206.52 304.29 177.89 304.29 177.89 382.4" style="fill: rgb(245, 245, 245); transform-origin: 194.12px 343.345px;" id="eln6qoslgp0ms" class="animable"></polygon><polygon points="75.24 382.4 199.88 382.4 208.5 301.67 83.85 301.67 75.24 382.4" style="fill: rgb(230, 230, 230); transform-origin: 141.87px 342.035px;" id="elzj11mpl8a6c" class="animable"></polygon><polygon points="71.63 382.4 196.28 382.4 204.89 301.67 80.24 301.67 71.63 382.4" style="fill: rgb(240, 240, 240); transform-origin: 138.26px 342.035px;" id="elmqtswddry0d" class="animable"></polygon><polygon points="190.42 373.46 198.3 310.6 86.1 310.6 78.22 373.46 190.42 373.46" style="fill: rgb(250, 250, 250); transform-origin: 138.26px 342.03px;" id="el84etaz981w4" class="animable"></polygon></g><g id="freepik--Shadow--inject-95" class="animable" style="transform-origin: 250px 416.24px;"><ellipse id="freepik--path--inject-95" cx="250" cy="416.24" rx="193.89" ry="11.32" style="fill: rgb(245, 245, 245); transform-origin: 250px 416.24px;" class="animable"></ellipse></g><g id="freepik--Screen--inject-95" class="animable animator-active" style="transform-origin: 290.166px 228.82px;"><g id="eldueabdrt8lo"><rect x="348.16" y="174.61" width="23.81" height="1.07" style="fill: rgb(64, 123, 255); transform-origin: 360.065px 175.145px; transform: rotate(-87.13deg);" class="animable"></rect></g><g id="el3q1fs4pbr9d"><rect x="354.71" y="195.71" width="8.58" height="1.07" style="fill: rgb(64, 123, 255); transform-origin: 359px 196.245px; transform: rotate(-87.13deg);" class="animable"></rect></g><path d="M334.22,355.35H232a12.77,12.77,0,0,1-12.84-13.53l11.4-226a14.42,14.42,0,0,1,14.21-13.53H347a12.76,12.76,0,0,1,12.84,13.53l-11.4,226A14.43,14.43,0,0,1,334.22,355.35Z" style="fill: rgb(64, 123, 255); transform-origin: 289.5px 228.82px;" id="elrkp174kr0qp" class="animable"></path><g id="elbweobo5jikl"><path d="M306.71,333.86H275.88a16.24,16.24,0,0,1-16.32-17.18L265,208.18a18.22,18.22,0,0,1,18-17.12h30.83a16.24,16.24,0,0,1,16.32,17.18l-5.48,108.5A18.22,18.22,0,0,1,306.71,333.86ZM283,192.19a17.09,17.09,0,0,0-16.86,16.05l-5.47,108.5a15.09,15.09,0,0,0,15.19,16h30.83a17.09,17.09,0,0,0,16.86-16.05L329,208.18a15.11,15.11,0,0,0-15.19-16Z" style="fill: rgb(255, 255, 255); opacity: 0.2; transform-origin: 294.855px 262.46px;" class="animable"></path></g><g id="el54kucg1txoh"><path d="M280.83,221h-26a12.77,12.77,0,0,1-12.85-13.53l1.31-26.05a14.44,14.44,0,0,1,14.22-13.53h26.05a12.77,12.77,0,0,1,12.85,13.53l-1.31,26.05A14.43,14.43,0,0,1,280.83,221Z" style="opacity: 0.1; transform-origin: 269.195px 194.445px;" class="animable"></path></g><path d="M273.25,213H247.19a12.78,12.78,0,0,1-12.85-13.53l1.32-26a14.43,14.43,0,0,1,14.21-13.53h26.06a12.77,12.77,0,0,1,12.84,13.53l-1.31,26A14.43,14.43,0,0,1,273.25,213Z" style="fill: rgb(255, 255, 255); transform-origin: 261.555px 186.47px;" id="elhn3cqsnveh" class="animable"></path><g id="elkhg0wg25oh8"><path d="M317.43,321.84H298.87a9.11,9.11,0,0,1-9.16-9.64l.94-18.56A10.28,10.28,0,0,1,300.78,284h18.56a9.11,9.11,0,0,1,9.16,9.64l-.94,18.56A10.28,10.28,0,0,1,317.43,321.84Z" style="opacity: 0.1; transform-origin: 309.105px 302.92px;" class="animable"></path></g><path d="M312,316.15H293.46a9.1,9.1,0,0,1-9.15-9.64l.93-18.57a10.29,10.29,0,0,1,10.13-9.64h18.57a9.1,9.1,0,0,1,9.15,9.64l-.94,18.57A10.27,10.27,0,0,1,312,316.15Z" style="fill: rgb(255, 255, 255); transform-origin: 303.7px 297.225px;" id="eln2h7sgi36zh" class="animable"></path><path d="M250.15,259.92h-13.4a6.57,6.57,0,0,1-6.61-7l.68-13.39a7.42,7.42,0,0,1,7.31-7h13.39a6.57,6.57,0,0,1,6.61,7L257.45,253A7.42,7.42,0,0,1,250.15,259.92Z" style="fill: rgb(255, 255, 255); transform-origin: 244.135px 246.225px;" id="elr2b4yu7hzb" class="animable"></path><path d="M336.08,259.92H322.69a6.57,6.57,0,0,1-6.61-7l.68-13.39a7.42,7.42,0,0,1,7.3-7h13.4a6.57,6.57,0,0,1,6.61,7L343.39,253A7.42,7.42,0,0,1,336.08,259.92Z" style="fill: rgb(255, 255, 255); transform-origin: 330.075px 246.225px;" id="elpidayxfgz0k" class="animable"></path><path d="M293.12,259.92h-13.4a6.57,6.57,0,0,1-6.61-7l.68-13.39a7.42,7.42,0,0,1,7.31-7h13.39a6.57,6.57,0,0,1,6.61,7L300.42,253A7.42,7.42,0,0,1,293.12,259.92Z" style="fill: rgb(255, 255, 255); transform-origin: 287.105px 246.225px;" id="elfa0k6yrjegm" class="animable"></path><path d="M343,141.69H244.81a7.13,7.13,0,0,1-7.17-7.56V134a8.06,8.06,0,0,1,7.93-7.55h98.15A7.13,7.13,0,0,1,350.9,134v.18A8.06,8.06,0,0,1,343,141.69Z" style="fill: rgb(255, 255, 255); transform-origin: 294.27px 134.07px;" id="eltguv3av8tza" class="animable"></path><polygon points="338.55 129.75 339.8 132.58 342.9 133.03 340.53 135.23 340.91 138.33 338.19 136.87 335.33 138.33 336.02 135.23 333.88 133.03 337.02 132.58 338.55 129.75" style="fill: rgb(64, 123, 255); transform-origin: 338.39px 134.04px;" id="elt4bgaqwq33" class="animable"></polygon><g id="elqhqijodyb8"><path d="M250.49,134a3,3,0,0,1-3,2.82,2.65,2.65,0,0,1-2.67-2.82,3,3,0,0,1,3-2.82A2.66,2.66,0,0,1,250.49,134Z" style="fill: rgb(64, 123, 255); opacity: 0.1; transform-origin: 247.655px 134px;" class="animable"></path></g><g id="elaa23rqpu5e5"><path d="M257.72,134a3,3,0,0,1-3,2.82,2.66,2.66,0,0,1-2.68-2.82,3,3,0,0,1,3-2.82A2.66,2.66,0,0,1,257.72,134Z" style="fill: rgb(64, 123, 255); opacity: 0.1; transform-origin: 254.88px 134px;" class="animable"></path></g><g id="els375xrmrcjs"><path d="M265,134a3,3,0,0,1-3,2.82,2.65,2.65,0,0,1-2.68-2.82,3,3,0,0,1,3-2.82A2.66,2.66,0,0,1,265,134Z" style="fill: rgb(64, 123, 255); opacity: 0.1; transform-origin: 262.16px 134px;" class="animable"></path></g><g id="el5zc6hssjno"><polygon points="286.24 114.45 291.9 118.89 292.35 110.02 286.24 114.45" style="fill: rgb(255, 255, 255); opacity: 0.2; transform-origin: 289.295px 114.455px;" class="animable"></polygon></g><g id="eljfh44g7e90c"><polygon points="304.28 114.45 298.17 118.89 298.61 110.02 304.28 114.45" style="fill: rgb(255, 255, 255); opacity: 0.2; transform-origin: 301.225px 114.455px;" class="animable"></polygon></g><g id="elaebwjvgw9m"><path d="M339.35,175.62h-35.7a2.77,2.77,0,0,1-2.78-2.92,3.08,3.08,0,0,1,3-2.9h35.71a2.77,2.77,0,0,1,2.78,2.93A3.09,3.09,0,0,1,339.35,175.62Zm-35.44-5.26a2.52,2.52,0,0,0-2.48,2.37,2.19,2.19,0,0,0,2.22,2.33h35.7a2.52,2.52,0,0,0,2.49-2.36,2.21,2.21,0,0,0-.61-1.65,2.17,2.17,0,0,0-1.61-.69Z" style="fill: rgb(255, 255, 255); opacity: 0.2; transform-origin: 321.615px 172.71px;" class="animable"></path></g><g id="elqrorcis8mxj"><path d="M339,183.61h-35.7a2.75,2.75,0,0,1-2.78-2.92,3.08,3.08,0,0,1,3-2.9h35.71a2.76,2.76,0,0,1,2.77,2.93A3.08,3.08,0,0,1,339,183.61Zm-35.44-5.26a2.52,2.52,0,0,0-2.48,2.37,2.23,2.23,0,0,0,.6,1.65,2.2,2.2,0,0,0,1.62.68H339a2.51,2.51,0,0,0,2.48-2.36,2.21,2.21,0,0,0-2.21-2.34Z" style="fill: rgb(255, 255, 255); opacity: 0.2; transform-origin: 321.26px 180.7px;" class="animable"></path></g><g id="el9ojrf9lqjy"><path d="M242,319.55a2.72,2.72,0,0,1-2-.86,2.75,2.75,0,0,1-.76-2.07l1.8-35.7a3.09,3.09,0,0,1,3-2.9A2.76,2.76,0,0,1,246.8,281l-1.8,35.7A3.08,3.08,0,0,1,242,319.55Zm2.06-41a2.52,2.52,0,0,0-2.48,2.37l-1.8,35.7h0A2.21,2.21,0,0,0,242,319a2.52,2.52,0,0,0,2.48-2.37l1.8-35.7a2.21,2.21,0,0,0-2.22-2.34Zm-4.56,38.06h0Z" style="fill: rgb(255, 255, 255); opacity: 0.2; transform-origin: 243.022px 298.785px;" class="animable"></path></g><g id="elswhrk868zsn"><circle cx="261.56" cy="186.49" r="6.08" style="fill: rgb(64, 123, 255); transform-origin: 261.56px 186.49px; transform: rotate(-9.18deg);" class="animable"></circle></g><path d="M253.76,186.59v-.1a7.81,7.81,0,0,1,7.8-7.81l.27,0h15.05a17.18,17.18,0,0,0-29.19-2.37Z" style="fill: rgb(64, 123, 255); transform-origin: 262.285px 177.93px;" id="elgbgli8acadd" class="animable"></path><path d="M265.34,179.66a7.81,7.81,0,0,1,2.28,11.74l-6.76,12.26.7,0a17.2,17.2,0,0,0,15.78-24Z" style="fill: rgb(64, 123, 255); transform-origin: 269.801px 191.66px;" id="el57xe7z1toot" class="animable"></path><path d="M265.52,193.2a7.71,7.71,0,0,1-4,1.09,7.79,7.79,0,0,1-7.11-4.6l-7.37-12.47a17.2,17.2,0,0,0,12.71,26.37Z" style="fill: rgb(64, 123, 255); transform-origin: 254.926px 190.405px;" id="elt08h42i206l" class="animable"></path><path d="M315,299.24H299.16c-.1,0-.12,0-.11.13a5.29,5.29,0,0,0,.53,1.91,4.6,4.6,0,0,0,3.4,2.56,5.59,5.59,0,0,0,1.73.11,5.12,5.12,0,0,0,2.83-1.21,6,6,0,0,0,1-1.11.2.2,0,0,1,.16-.09h5.67c0,.1-.07.19-.1.29a11.53,11.53,0,0,1-4.75,5.59,10.09,10.09,0,0,1-3.65,1.29,11.81,11.81,0,0,1-2.3.16,10.72,10.72,0,0,1-4.27-1,.31.31,0,0,0-.31,0,17.32,17.32,0,0,1-3.64,1.29,7.19,7.19,0,0,1-2.17.17,2.78,2.78,0,0,1-2.73-2.43,7,7,0,0,1,0-2.33,19.46,19.46,0,0,1,3.12-7.89,32,32,0,0,1,4.78-5.67,3.61,3.61,0,0,1,.3-.25l0,0-.16.05a4.5,4.5,0,0,0-1.18.64,25,25,0,0,0-3.62,3.2c-.17.17-.33.35-.5.53h0c0-.16.06-.33.11-.48a9.57,9.57,0,0,1,1.94-3.64,13.25,13.25,0,0,1,3.87-3.23,8.86,8.86,0,0,1,3.13-1,10.52,10.52,0,0,1,2.17-.09.64.64,0,0,0,.28-.07,22.06,22.06,0,0,1,3.7-1.33,9.67,9.67,0,0,1,2.39-.31,4.18,4.18,0,0,1,2.64.82,3.34,3.34,0,0,1,1.35,2.36,6,6,0,0,1-.41,2.74c-.18.45-.4.88-.61,1.32a.25.25,0,0,0,0,.25,12.3,12.3,0,0,1,1.13,3.54,16.56,16.56,0,0,1,.19,3.06S315,299.19,315,299.24Zm-5.92-3a1.34,1.34,0,0,0,0-.21,12.22,12.22,0,0,0-.37-1.35,4.43,4.43,0,0,0-2.74-2.75,5.85,5.85,0,0,0-3.16-.18,4.28,4.28,0,0,0-2.52,1.48,5.67,5.67,0,0,0-1.15,2.5c0,.16,0,.33-.08.51Zm-15.63,5.28-.08.14a17.93,17.93,0,0,0-.9,2.34,6.45,6.45,0,0,0-.35,2.65,1.91,1.91,0,0,0,1.14,1.62,3.79,3.79,0,0,0,2.18.2,8.17,8.17,0,0,0,2.67-1l.15-.1a11.14,11.14,0,0,1-2.85-2.53A13.52,13.52,0,0,1,293.47,301.53Zm19.9-9.61.07-.12a7.51,7.51,0,0,0,.7-2.26,2.79,2.79,0,0,0-.21-1.61,2.2,2.2,0,0,0-1.53-1.33,4.09,4.09,0,0,0-1.48,0,11,11,0,0,0-2.69.83l-.14.07A11.32,11.32,0,0,1,313.37,291.92Z" style="fill: rgb(64, 123, 255); transform-origin: 302.715px 297.188px;" id="el5py7e9krbz" class="animable"></path></g><g id="freepik--Character--inject-95" class="animable" style="transform-origin: 192.32px 253.131px;"><path d="M148.38,207.94l4.77,4.16-8.81,4a45.68,45.68,0,0,1-.67-5.3,2.45,2.45,0,0,1,2.24-2.64Z" style="fill: rgb(255, 195, 189); transform-origin: 148.406px 212.02px;" id="el1wa0sdwo54p" class="animable"></path><polygon points="154.92 220.56 147.11 220.56 144.34 216.09 153.15 212.1 154.92 220.56" style="fill: rgb(255, 195, 189); transform-origin: 149.63px 216.33px;" id="el8gdlqkdy6ap" class="animable"></polygon><path d="M199.56,145.9c3.33,4.22,6.79,8.55,10.24,12.75s7,8.35,10.6,12.23l1.37,1.43.52.53a3.89,3.89,0,0,0,.46.41,18.05,18.05,0,0,0,2.68,1.75,54.39,54.39,0,0,0,7,3c5,1.82,10.25,3.41,15.46,4.87l-.77,5.88a92.19,92.19,0,0,1-17.22-1.91,52.35,52.35,0,0,1-8.74-2.6,25.82,25.82,0,0,1-4.57-2.35c-.4-.28-.78-.53-1.19-.87l-.6-.49-.43-.38-1.64-1.47a163.64,163.64,0,0,1-12-12.37c-3.76-4.28-7.29-8.62-10.72-13.24Z" style="fill: rgb(255, 195, 189); transform-origin: 218.95px 167.325px;" id="elks6i5wl0d8" class="animable"></path><polygon points="257.21 181.93 259.35 190.19 250.97 189.72 252.87 180.5 257.21 181.93" style="fill: rgb(255, 195, 189); transform-origin: 255.16px 185.345px;" id="elapdl3f5qtl" class="animable"></polygon><path d="M245.55,182.91l7.32-2.41-1.9,9.22s-6.47,1.89-8.79-2.84Z" style="fill: rgb(255, 195, 189); transform-origin: 247.525px 185.296px;" id="el320m68khl8g" class="animable"></path><path d="M157.75,149.43c-1.52,5.21-3.11,10.45-4.73,15.64l-2.4,7.78-1.16,3.85-.55,1.9-.46,1.72a15.93,15.93,0,0,0-.32,3c0,1.19,0,2.45,0,3.73.13,2.57.33,5.22.61,7.88.54,5.33,1.2,10.77,1.86,16.14l-5.75,1.46a142.13,142.13,0,0,1-5-16.07c-.66-2.74-1.27-5.52-1.7-8.41-.21-1.45-.4-2.93-.51-4.48a23.84,23.84,0,0,1,.14-5.2c.08-.57.14-.82.21-1.21l.19-1.08.43-2.1c.29-1.39.6-2.76.93-4.12q.94-4.08,2-8.08c1.42-5.36,3-10.64,4.68-15.91Z" style="fill: rgb(255, 195, 189); transform-origin: 147.655px 179.2px;" id="el0cja71c59th" class="animable"></path><path d="M186.91,114.41c-.13.62.09,1.21.49,1.31s.84-.32,1-.94-.09-1.21-.49-1.31S187,113.79,186.91,114.41Z" style="fill: rgb(38, 50, 56); transform-origin: 187.661px 114.595px;" id="el5isomhqw6e4" class="animable"></path><path d="M186.94,115.61a23.77,23.77,0,0,0,1.82,6.07,3.64,3.64,0,0,1-3.07-.18Z" style="fill: rgb(237, 132, 126); transform-origin: 187.225px 118.773px;" id="elp8z2shmvrxf" class="animable"></path><path d="M188.56,110.63a.38.38,0,0,0,.31-.16.37.37,0,0,0-.09-.52,3.66,3.66,0,0,0-3.39-.26.37.37,0,0,0,.29.69,2.93,2.93,0,0,1,2.67.18A.4.4,0,0,0,188.56,110.63Z" style="fill: rgb(38, 50, 56); transform-origin: 187.05px 110.011px;" id="elpar4pdr142" class="animable"></path><path d="M165.48,116.39c-.7,7.26.33,14.29-1.3,20.6,0,0,1.81,5.86,12.54,5.86,11.8,0,5.41-5.86,5.41-5.86-6.5-1.54-6.52-6.31-5.57-10.8Z" style="fill: rgb(255, 195, 189); transform-origin: 174.019px 129.62px;" id="elklrxzn8r5xq" class="animable"></path><path d="M161.9,139c-.92-1.85-1.53-4.48.37-5.14,2.09-.73,13.26-1,17.31.4a4.27,4.27,0,0,1,3.06,5.13Z" style="fill: rgb(64, 123, 255); transform-origin: 171.892px 136.325px;" id="elo9clwtk3kjl" class="animable"></path><path d="M140.46,402.69a9.87,9.87,0,0,1-2.13-.82.2.2,0,0,1-.11-.19.19.19,0,0,1,.14-.18c.35-.12,3.45-1.15,4.27-.45a.66.66,0,0,1,.2.64,1.21,1.21,0,0,1-.66,1A2.59,2.59,0,0,1,140.46,402.69Zm-1.49-1c1.36.62,2.47.83,3,.55a.81.81,0,0,0,.44-.66.24.24,0,0,0-.07-.26C141.94,401,140.22,401.35,139,401.73Z" style="fill: rgb(64, 123, 255); transform-origin: 140.534px 401.822px;" id="elsbvyzqkmeud" class="animable"></path><path d="M138.38,401.89a.17.17,0,0,1-.1-.06.19.19,0,0,1-.05-.2c0-.1.8-2.48,2-3a1.12,1.12,0,0,1,.91-.06h0a.65.65,0,0,1,.5.67c0,1-2.15,2.42-3.13,2.69Zm2.5-3a.73.73,0,0,0-.5.06,5,5,0,0,0-1.62,2.4c1-.45,2.42-1.59,2.45-2.17,0-.05,0-.17-.25-.27h0Z" style="fill: rgb(64, 123, 255); transform-origin: 139.93px 400.215px;" id="elewgvkx4kpr" class="animable"></path><path d="M195.08,408.8a10.45,10.45,0,0,1-2.26-.31.2.2,0,0,1-.15-.17.22.22,0,0,1,.09-.21c.32-.19,3.1-1.9,4.05-1.41a.64.64,0,0,1,.35.58,1.23,1.23,0,0,1-.42,1.08A2.65,2.65,0,0,1,195.08,408.8Zm-1.66-.6c1.46.29,2.59.24,3.06-.16a.82.82,0,0,0,.28-.74.26.26,0,0,0-.13-.24C196.13,406.81,194.55,407.54,193.42,408.2Z" style="fill: rgb(64, 123, 255); transform-origin: 194.918px 407.709px;" id="elyvhjne8oj3" class="animable"></path><path d="M192.87,408.49a.2.2,0,0,1-.11,0,.2.2,0,0,1-.09-.19c0-.1.21-2.59,1.21-3.41a1.1,1.1,0,0,1,.87-.26h0a.66.66,0,0,1,.65.53c.19,1-1.54,2.85-2.43,3.34Zm1.74-3.49a.72.72,0,0,0-.47.17,5,5,0,0,0-1,2.71c.89-.68,2-2.1,1.88-2.67,0,0,0-.18-.3-.21h-.09Z" style="fill: rgb(64, 123, 255); transform-origin: 194.042px 406.56px;" id="el2c2w0i19n1t" class="animable"></path><polygon points="183.59 408.18 191.48 408.18 191.56 389.9 183.67 389.9 183.59 408.18" style="fill: rgb(255, 195, 189); transform-origin: 187.575px 399.04px;" id="elodshjt7dkh" class="animable"></polygon><polygon points="128.59 401.42 136.19 402.81 141.64 384.82 134.04 383.43 128.59 401.42" style="fill: rgb(255, 195, 189); transform-origin: 135.115px 393.12px;" id="elo9l3yjpotad" class="animable"></polygon><path d="M137.64,400.79l-8.63-2a.65.65,0,0,0-.76.37l-2.87,6.53a1.22,1.22,0,0,0,.86,1.65c3,.66,4.52.82,8.31,1.72,2.34.55,7.1,1.94,10.32,2.7s4.28-2.36,3-3c-5.66-2.71-7.54-5-9.1-7.2A2,2,0,0,0,137.64,400.79Z" style="fill: rgb(38, 50, 56); transform-origin: 136.844px 405.324px;" id="el6m16z5jjibv" class="animable"></path><path d="M191.39,407.26h-8.62a.66.66,0,0,0-.65.54l-1.29,7a1.2,1.2,0,0,0,1.19,1.4c3.11-.05,7.6-.23,11.51-.23,4.57,0,6.19.25,11.55.25,3.24,0,4-3.28,2.65-3.57-6.23-1.36-8.95-1.5-14.41-4.79A3.74,3.74,0,0,0,191.39,407.26Z" style="fill: rgb(38, 50, 56); transform-origin: 194.59px 411.74px;" id="elqeokhemvtsn" class="animable"></path><path d="M149.66,139.86c-7.7,7.34-10,23.83-10,23.83l13.92,6.82a118.85,118.85,0,0,0,6.87-17.75C163.23,143.08,155.23,134.54,149.66,139.86Z" style="fill: rgb(38, 50, 56); transform-origin: 150.34px 154.367px;" id="elj3yu1bo5hyb" class="animable"></path><g id="ellrvkquo40xc"><path d="M156.58,150.75l-7.09,17.74,4.09,2s2.29-4.61,4.56-10.72Z" style="opacity: 0.2; transform-origin: 153.815px 160.62px;" class="animable"></path></g><path d="M198.37,174c-.06,8.81-.59,19.77-1.91,33.37H154.24c-.52-6.2,2.07-35.43-4.21-64.69a3.88,3.88,0,0,1,3.19-4.65,96.6,96.6,0,0,1,10-1.07,155.5,155.5,0,0,1,17.94,0,80.85,80.85,0,0,1,12.23,2.19s3.61,3.91,4.7,22.25C198.28,165.05,198.39,169.22,198.37,174Z" style="fill: rgb(38, 50, 56); transform-origin: 174.158px 172.036px;" id="ellbxm7vnj72" class="animable"></path><path d="M158.28,136.8l-1.84.21a.55.55,0,0,0-.48.63c.57,3.77,5.36,26.21,41,59a.55.55,0,0,0,.93-.36l.14-2.07a.54.54,0,0,0-.18-.45C162,161,159.11,140.91,158.9,137.31A.55.55,0,0,0,158.28,136.8Z" style="fill: rgb(64, 123, 255); transform-origin: 176.993px 166.794px;" id="elkmpiyp3i50s" class="animable"></path><path d="M181.13,179.74l16.21,15.58-1.88,1.18a8,8,0,0,1-8.18.18L183,194.26a8,8,0,0,1-3.6-9.55Z" style="fill: rgb(64, 123, 255); transform-origin: 188.153px 188.728px;" id="ell49lm9ednoi" class="animable"></path><path d="M186.49,193.71c.14.32.79.26,1.46-.12s1.09-.94,1-1.25-.79-.26-1.46.12S186.35,193.4,186.49,193.71Z" style="fill: rgb(38, 50, 56); transform-origin: 187.714px 193.027px;" id="elfiq8skc7l7o" class="animable"></path><g id="ellljifjhikge"><path d="M198.37,174c-2.56-4.66-7.2-14-6.54-19.35l6.23,6.75C198.28,165.05,198.39,169.22,198.37,174Z" style="opacity: 0.2; transform-origin: 195.069px 164.325px;" class="animable"></path></g><path d="M185.08,146.32c-.67,7.49,16.38,25.61,16.38,25.61l13.67-11.13s-5.62-9.74-12.78-16.66C194.36,136.42,185.83,137.89,185.08,146.32Z" style="fill: rgb(38, 50, 56); transform-origin: 200.095px 155.513px;" id="elvf1tbj0qbyp" class="animable"></path><g id="el1gv3bygvl9v"><g style="opacity: 0.2; transform-origin: 161.395px 391.745px;" class="animable"><polygon points="191.56 389.9 191.52 400.06 183.62 400.06 183.66 389.9 191.56 389.9" id="el8igfqlgfv4r" class="animable" style="transform-origin: 187.59px 394.98px;"></polygon><polygon points="134.04 383.43 141.64 384.83 138.83 394.1 131.23 392.7 134.04 383.43" id="elmmrn34213x" class="animable" style="transform-origin: 136.435px 388.765px;"></polygon></g></g><path d="M166.6,107.89c-1.15,7.77-2.22,12.25.78,17.14a10.18,10.18,0,0,0,18-1c3.09-6.47,4.46-18.09-2.32-23A10.29,10.29,0,0,0,166.6,107.89Z" style="fill: rgb(255, 195, 189); transform-origin: 176.681px 114.449px;" id="el9cmu1hlsquk" class="animable"></path><path d="M180.61,115.08c-.06,2.21-5.73,9.44-10.56,10.33-5.23,1-6.58-.51-7.41-7.64-.95-8.2-3.7-8.2-4.89-13.43-1.51-6.59,4.95-12.59,12.59-9,6.62,3.15,12.74-3,17.3-4.9s5.27,3.43,2.22,7,1.77,1.36,3.17,2.86c2.5,2.69-1.6,8.71-11.83,11.1C183,113.33,180.61,115.08,180.61,115.08Z" style="fill: rgb(38, 50, 56); transform-origin: 175.636px 107.865px;" id="ely8123tqvvu" class="animable"></path><path d="M178.21,112.69a9.29,9.29,0,0,0,1.86,5.47c1.59,2.07,3.44,1.06,3.88-1.23.4-2.06.06-5.62-1.95-6.87S178.21,110.32,178.21,112.69Z" style="fill: rgb(255, 195, 189); transform-origin: 181.154px 114.447px;" id="eleb0ve3jd4u" class="animable"></path><path d="M181.48,207.4s-6.62,60.32-10.67,82.92c-4.43,24.75-27.37,102.43-27.37,102.43l-14.14-3s15.79-72.67,17.92-97.17c2.31-26.6,7-85.17,7-85.17Z" style="fill: rgb(64, 123, 255); transform-origin: 155.39px 300.075px;" id="elbenh7urcspq" class="animable"></path><g id="eltgf4mj6o6bf"><path d="M181.48,207.4s-6.62,60.32-10.67,82.92c-4.43,24.75-27.37,102.43-27.37,102.43l-14.14-3s15.79-72.67,17.92-97.17c2.31-26.6,7-85.17,7-85.17Z" style="fill: rgb(255, 255, 255); opacity: 0.15; transform-origin: 155.39px 300.075px;" class="animable"></path></g><path d="M146.61,388c.06,0-2.41,5.16-2.41,5.16l-15.91-3.39,1.14-4.82Z" style="fill: rgb(38, 50, 56); transform-origin: 137.451px 389.055px;" id="elysmgw0haw3b" class="animable"></path><g id="el3bmypt6e5rp"><path d="M176.65,228.9c-10.28,2-7.69,40.65-5.68,60.52,2.45-14,5.78-41.07,8-60.24A3.52,3.52,0,0,0,176.65,228.9Z" style="opacity: 0.2; transform-origin: 174.047px 259.118px;" class="animable"></path></g><path d="M196.46,207.4s3.37,59,3.44,83.09c.07,25-5.51,107-5.51,107H181s-3.6-80.51-5.14-105.1c-1.69-26.81-7.17-85-7.17-85Z" style="fill: rgb(64, 123, 255); transform-origin: 184.295px 302.44px;" id="elhs0nnn788t8" class="animable"></path><g id="ell84z5twzlor"><path d="M196.46,207.4s3.37,59,3.44,83.09c.07,25-5.51,107-5.51,107H181s-3.6-80.51-5.14-105.1c-1.69-26.81-7.17-85-7.17-85Z" style="fill: rgb(255, 255, 255); opacity: 0.15; transform-origin: 184.295px 302.44px;" class="animable"></path></g><path d="M196.76,392.18c.06,0-.54,5.55-.54,5.55H180l-.63-5Z" style="fill: rgb(38, 50, 56); transform-origin: 188.067px 394.955px;" id="elq6h2pf2ug8m" class="animable"></path></g><defs>     <filter id="active" height="200%">         <feMorphology in="SourceAlpha" result="DILATED" operator="dilate" radius="2"></feMorphology>                <feFlood flood-color="#32DFEC" flood-opacity="1" result="PINK"></feFlood>        <feComposite in="PINK" in2="DILATED" operator="in" result="OUTLINE"></feComposite>        <feMerge>            <feMergeNode in="OUTLINE"></feMergeNode>            <feMergeNode in="SourceGraphic"></feMergeNode>        </feMerge>    </filter>    <filter id="hover" height="200%">        <feMorphology in="SourceAlpha" result="DILATED" operator="dilate" radius="2"></feMorphology>                <feFlood flood-color="#ff0000" flood-opacity="0.5" result="PINK"></feFlood>        <feComposite in="PINK" in2="DILATED" operator="in" result="OUTLINE"></feComposite>        <feMerge>            <feMergeNode in="OUTLINE"></feMergeNode>            <feMergeNode in="SourceGraphic"></feMergeNode>        </feMerge>            <feColorMatrix type="matrix" values="0   0   0   0   0                0   1   0   0   0                0   0   0   0   0                0   0   0   1   0 "></feColorMatrix>    </filter></defs></svg>